<svg width="22" height="22" viewBox="0 0 22 22" fill="none" xmlns="http://www.w3.org/2000/svg">
<path d="M11 22C4.92487 22 0 17.0751 0 11C0 4.92487 4.92487 0 11 0C17.0751 0 22 4.92487 22 11C21.9933 17.0724 17.0724 21.9933 11 22Z" fill="#9E9E9E"/>
<path d="M6.5509 16C6.39698 15.9997 6.25024 15.9348 6.1465 15.8211C6.04084 15.7083 5.98834 15.5557 6.00218 15.4017L6.13662 13.9231L12.347 7.71318L14.2878 9.65398L8.07908 15.8633L6.60084 15.9978C6.58382 15.9995 6.56681 16 6.5509 16ZM14.6752 9.26593L12.735 7.32513L13.8988 6.16098C14.0017 6.05791 14.1414 6 14.287 6C14.4327 6 14.5723 6.05791 14.6752 6.16098L15.8391 7.32513C15.9421 7.42808 16 7.56778 16 7.71345C16 7.85913 15.9421 7.99883 15.8391 8.10178L14.6758 9.26538L14.6752 9.26593Z" fill="white"/>
</svg>
