<svg width="14" height="15" viewBox="0 0 14 15" fill="none" xmlns="http://www.w3.org/2000/svg">
<path d="M13 0.25H1C0.58525 0.25 0.25 0.58525 0.25 1V2.9425C0.25 3.33475 0.40975 3.72025 0.68725 3.99775L4.75 8.0605V13.75C4.75 14.0103 4.885 14.251 5.10625 14.3883C5.22625 14.4625 5.36275 14.5 5.5 14.5C5.61475 14.5 5.7295 14.4738 5.83525 14.4213L8.83525 12.9213C9.0895 12.7938 9.25 12.5343 9.25 12.25V8.0605L13.3127 3.99775C13.5903 3.72025 13.75 3.33475 13.75 2.9425V1C13.75 0.58525 13.4148 0.25 13 0.25ZM7.96975 7.21975C7.82875 7.36 7.75 7.5505 7.75 7.75V11.7865L6.25 12.5365V7.75C6.25 7.5505 6.17125 7.36 6.03025 7.21975L1.75 2.9425V1.75H12.2507L12.2523 2.93725L7.96975 7.21975Z" fill="#9E9E9E"/>
</svg>
