<svg width="18" height="18" viewBox="0 0 18 18" fill="none" xmlns="http://www.w3.org/2000/svg">
<path d="M0.807739 2.5C0.807739 1.67157 1.47931 1 2.30774 1H15.3077C16.1362 1 16.8077 1.67157 16.8077 2.5V15.5C16.8077 16.3284 16.1362 17 15.3077 17H2.30774C1.47931 17 0.807739 16.3284 0.807739 15.5V2.5Z" stroke="#787878"/>
<mask id="path-2-inside-1" fill="white">
<path fill-rule="evenodd" clip-rule="evenodd" d="M0.307739 15.5C0.307739 16.6046 1.20317 17.5 2.30774 17.5L15.3077 17.5C16.4123 17.5 17.3077 16.6046 17.3077 15.5V11.5H0.307739V15.5ZM3.30774 15.5C2.75545 15.5 2.30774 15.0523 2.30774 14.5C2.30774 13.9477 2.75545 13.5 3.30774 13.5H14.3077C14.86 13.5 15.3077 13.9477 15.3077 14.5C15.3077 15.0523 14.86 15.5 14.3077 15.5H3.30774Z"/>
</mask>
<path fill-rule="evenodd" clip-rule="evenodd" d="M0.307739 15.5C0.307739 16.6046 1.20317 17.5 2.30774 17.5L15.3077 17.5C16.4123 17.5 17.3077 16.6046 17.3077 15.5V11.5H0.307739V15.5ZM3.30774 15.5C2.75545 15.5 2.30774 15.0523 2.30774 14.5C2.30774 13.9477 2.75545 13.5 3.30774 13.5H14.3077C14.86 13.5 15.3077 13.9477 15.3077 14.5C15.3077 15.0523 14.86 15.5 14.3077 15.5H3.30774Z" fill="#787878"/>
<path d="M2.30774 17.5V18.5V17.5ZM15.3077 17.5V16.5V17.5ZM17.3077 11.5H18.3077V10.5H17.3077V11.5ZM0.307739 11.5V10.5H-0.692261V11.5H0.307739ZM2.30774 16.5C1.75545 16.5 1.30774 16.0523 1.30774 15.5H-0.692261C-0.692261 17.1569 0.650885 18.5 2.30774 18.5V16.5ZM15.3077 16.5L2.30774 16.5V18.5L15.3077 18.5V16.5ZM16.3077 15.5C16.3077 16.0523 15.86 16.5 15.3077 16.5V18.5C16.9646 18.5 18.3077 17.1569 18.3077 15.5H16.3077ZM16.3077 11.5V15.5H18.3077V11.5H16.3077ZM0.307739 12.5H17.3077V10.5H0.307739V12.5ZM1.30774 15.5V11.5H-0.692261V15.5H1.30774ZM1.30774 14.5C1.30774 15.6046 2.20317 16.5 3.30774 16.5V14.5H1.30774ZM3.30774 12.5C2.20317 12.5 1.30774 13.3954 1.30774 14.5H3.30774V12.5ZM14.3077 12.5H3.30774V14.5H14.3077V12.5ZM16.3077 14.5C16.3077 13.3954 15.4123 12.5 14.3077 12.5V14.5H16.3077ZM14.3077 16.5C15.4123 16.5 16.3077 15.6046 16.3077 14.5H14.3077V16.5ZM3.30774 16.5H14.3077V14.5H3.30774V16.5Z" fill="#787878" mask="url(#path-2-inside-1)"/>
</svg>
