<svg width="22" height="22" viewBox="0 0 22 22" fill="none" xmlns="http://www.w3.org/2000/svg">
<path d="M11 22C4.92487 22 0 17.0751 0 11C0 4.92487 4.92487 0 11 0C17.0751 0 22 4.92487 22 11C21.9933 17.0724 17.0724 21.9933 11 22Z" fill="#54B98C"/>
<g clip-path="url(#clip0)">
<path d="M21.5625 22H13.4384C13.2817 22 13.137 21.9153 13.0587 21.7778C12.9804 21.6402 12.9804 21.4708 13.0587 21.3333L17.1206 14.2218C17.199 14.0845 17.3436 14 17.5 14C17.6564 14 17.801 14.0845 17.8794 14.2218L21.9413 21.3333C22.0195 21.4707 22.0196 21.6401 21.9414 21.7776C21.8632 21.9151 21.7191 21.9998 21.5625 22Z" fill="#FFA700" stroke="white"/>
</g>
<path d="M7.45629 9.79384L6 11.1765L9.99643 15L17 8.38267L15.5437 7L9.99643 12.2337L7.45629 9.79384Z" fill="white"/>
<defs>
<clipPath id="clip0">
<rect width="10" height="10" fill="white" transform="translate(12 12)"/>
</clipPath>
</defs>
</svg>
