<svg width="21" height="21" viewBox="0 0 21 21" fill="none" xmlns="http://www.w3.org/2000/svg">
<path d="M16.8678 18.5636L14.0712 15.7669C12.8646 16.3162 11.5518 16.5931 10.2262 16.5777C8.85939 16.5947 7.50675 16.2997 6.27116 15.7152C5.31339 15.2479 4.45335 14.6025 3.73699 13.8136C2.97657 12.9984 2.3789 12.0455 1.97616 11.0061L1.89282 10.7444L1.98032 10.4811C2.58266 8.94463 3.59637 7.60369 4.91032 6.60522L2.72616 4.42105L3.90366 3.24438L18.0445 17.3852L16.8695 18.5636H16.8678ZM6.08949 7.78522C5.02443 8.53181 4.18336 9.55498 3.65699 10.7444C4.78567 13.3485 7.38938 14.9999 10.2262 14.9111C11.101 14.9182 11.9708 14.7773 12.7987 14.4944L11.2987 12.9944C10.9648 13.1581 10.598 13.2435 10.2262 13.2444C8.84904 13.2357 7.7348 12.1215 7.72616 10.7444C7.72655 10.3717 7.81206 10.004 7.97616 9.66938L6.08949 7.78522ZM16.7695 13.7527L15.6095 12.5936C16.0975 12.0418 16.4975 11.4181 16.7953 10.7444C15.6681 8.13903 13.0634 6.48695 10.2262 6.57772C10.0203 6.57772 9.81366 6.58522 9.61366 6.59938L8.14282 5.12688C8.82751 4.98041 9.52598 4.90805 10.2262 4.91105C11.5929 4.89409 12.9456 5.18907 14.1812 5.77355C15.1389 6.24083 15.999 6.88621 16.7153 7.67522C17.4754 8.48935 18.073 9.44111 18.4762 10.4794L18.5595 10.7444L18.472 11.0077C18.0818 12.0228 17.5046 12.9556 16.7703 13.7577L16.7695 13.7527Z" fill="#787878"/>
</svg>
