<svg width="13" height="15" viewBox="0 0 13 15" fill="none" xmlns="http://www.w3.org/2000/svg">
<path d="M7.34702 13.5918C7.32402 13.5306 7.31609 13.4785 7.3239 13.4364C7.33166 13.3946 7.30492 13.36 7.2436 13.3333C7.18228 13.3066 7.15168 13.2854 7.15168 13.2703C7.15168 13.255 7.10774 13.2434 7.01964 13.2359C6.93159 13.2282 6.88764 13.2243 6.88764 13.2243H6.73847H6.61221H3.30607C2.80097 13.2243 2.36854 13.0446 2.00879 12.6847C1.64913 12.325 1.46932 11.8927 1.46932 11.3876V3.30591C1.46932 2.80081 1.64909 2.36854 2.00879 2.00883C2.36854 1.64909 2.80097 1.46916 3.30607 1.46916H6.97951C7.07903 1.46916 7.15727 1.44447 7.21481 1.39462C7.27211 1.34488 7.3103 1.27021 7.32952 1.17074C7.34866 1.07126 7.3602 0.981438 7.36406 0.901062C7.36784 0.820767 7.36599 0.719282 7.35827 0.596848C7.35067 0.474455 7.34685 0.397939 7.34685 0.36718C7.34685 0.267705 7.31047 0.181781 7.23781 0.108924C7.16507 0.0363883 7.07903 0 6.97955 0H3.30607C2.39543 0 1.61669 0.323353 0.969939 0.970019C0.323353 1.61669 0 2.39531 0 3.30603V11.3876C0 12.2982 0.323353 13.0771 0.969939 13.7235C1.61669 14.3705 2.39543 14.6938 3.30607 14.6938H6.97967C7.07919 14.6938 7.15747 14.6688 7.21497 14.6193C7.27227 14.5695 7.31047 14.4949 7.32969 14.3953C7.34882 14.2959 7.36036 14.2057 7.36422 14.1256C7.368 14.0452 7.36615 13.944 7.35843 13.8215C7.35075 13.699 7.34702 13.6225 7.34702 13.5918Z" fill="#3B3B3B"/>
<path d="M12.8716 7.16692L9.19599 3.14061C9.11046 3.04697 9.00908 3 8.89195 3C8.77483 3 8.67345 3.04697 8.58783 3.14061C8.50223 3.23437 8.45946 3.3455 8.45946 3.47371V5.60525H5.43247C5.31528 5.60525 5.21396 5.65222 5.12836 5.74585C5.04276 5.83962 5 5.95067 5 6.07896V8.92104C5 9.04931 5.04276 9.16036 5.12836 9.25407C5.21406 9.34765 5.31535 9.39475 5.43247 9.39475H8.45949V11.5263C8.45949 11.6544 8.50225 11.7656 8.58785 11.8593C8.67345 11.9531 8.77483 12 8.89198 12C9.00908 12 9.11046 11.9531 9.19601 11.8593L12.8716 7.83316C12.9572 7.73932 13 7.62842 13 7.5001C13 7.37184 12.9572 7.26068 12.8716 7.16692Z" fill="#3B3B3B"/>
</svg>
