<svg width="122" height="30" viewBox="0 0 122 30" fill="none" xmlns="http://www.w3.org/2000/svg">
<rect width="30" height="30" rx="4" fill="#0E7D7D"/>
<path d="M22.7497 18.6154L24.7743 15.241L21.4 15.9802L17.0294 12.6058L14.7798 18.6154H22.7497Z" fill="#0E7D7D"/>
<path fill-rule="evenodd" clip-rule="evenodd" d="M21.0673 16.3567L15.1737 11.9412L9.03921 16.4994L5.72495 15.723L7.54234 18.3665H22.6621L24.4375 15.6013L21.0673 16.3567ZM27.1137 13.7298L23.34 19.6074H6.88962L2.88574 13.7836L8.76144 15.1599L15.1768 10.3931L21.3538 15.0209L27.1137 13.7298Z" fill="white"/>
<path d="M17.104 13.2046L15.3043 11.5013L12.2835 13.4617L8.29855 15.8077L3.83154 14.5222L6.72383 18.3786L16.1078 18.5714L17.104 13.2046Z" fill="white"/>
<path d="M48.9482 20H47.0547L43.917 15.4746L42.9531 16.2607V20H41.3193V10.0059H42.9531V14.7773C43.3997 14.2305 43.8441 13.7041 44.2861 13.1982L46.9863 10.0059H48.8457C47.1003 12.0566 45.8493 13.5173 45.0928 14.3877L48.9482 20ZM59.1475 14.9893C59.1475 16.6162 58.7396 17.8809 57.9238 18.7832C57.1126 19.6855 55.9619 20.1367 54.4717 20.1367C52.9632 20.1367 51.8034 19.6901 50.9922 18.7969C50.1855 17.8991 49.7822 16.6253 49.7822 14.9756C49.7822 13.3258 50.1878 12.0589 50.999 11.1748C51.8148 10.2907 52.9769 9.84863 54.4854 9.84863C55.971 9.84863 57.1195 10.2975 57.9307 11.1953C58.7419 12.0931 59.1475 13.3577 59.1475 14.9893ZM51.5186 14.9893C51.5186 16.2197 51.7669 17.154 52.2637 17.792C52.7604 18.4255 53.4964 18.7422 54.4717 18.7422C55.4424 18.7422 56.1738 18.4277 56.666 17.7988C57.1628 17.1699 57.4111 16.2334 57.4111 14.9893C57.4111 13.7633 57.165 12.8337 56.6729 12.2002C56.1852 11.5667 55.4561 11.25 54.4854 11.25C53.5055 11.25 52.765 11.5667 52.2637 12.2002C51.7669 12.8337 51.5186 13.7633 51.5186 14.9893ZM64.7461 20H63.1123V11.4072H60.1729V10.0059H67.6855V11.4072H64.7461V20ZM78.5137 20H72.8604V10.0059H78.5137V11.3867H74.4941V14.1074H78.2607V15.4746H74.4941V18.6123H78.5137V20ZM88.8086 14.9072C88.8086 16.557 88.3506 17.8193 87.4346 18.6943C86.5186 19.5648 85.1992 20 83.4766 20H80.6807V10.0059H83.7705C85.361 10.0059 86.5983 10.4342 87.4824 11.291C88.3665 12.1478 88.8086 13.3532 88.8086 14.9072ZM87.0859 14.9619C87.0859 12.5693 85.9671 11.373 83.7295 11.373H82.3145V18.626H83.4766C85.8828 18.626 87.0859 17.4046 87.0859 14.9619ZM90.9619 20V10.0059H92.5957V20H90.9619ZM98.6934 20H97.0596V11.4072H94.1201V10.0059H101.633V11.4072H98.6934V20ZM112.044 14.9893C112.044 16.6162 111.636 17.8809 110.82 18.7832C110.009 19.6855 108.858 20.1367 107.368 20.1367C105.86 20.1367 104.7 19.6901 103.889 18.7969C103.082 17.8991 102.679 16.6253 102.679 14.9756C102.679 13.3258 103.084 12.0589 103.896 11.1748C104.711 10.2907 105.873 9.84863 107.382 9.84863C108.868 9.84863 110.016 10.2975 110.827 11.1953C111.638 12.0931 112.044 13.3577 112.044 14.9893ZM104.415 14.9893C104.415 16.2197 104.663 17.154 105.16 17.792C105.657 18.4255 106.393 18.7422 107.368 18.7422C108.339 18.7422 109.07 18.4277 109.562 17.7988C110.059 17.1699 110.308 16.2334 110.308 14.9893C110.308 13.7633 110.062 12.8337 109.569 12.2002C109.082 11.5667 108.353 11.25 107.382 11.25C106.402 11.25 105.661 11.5667 105.16 12.2002C104.663 12.8337 104.415 13.7633 104.415 14.9893ZM115.824 14.6543H116.959C117.72 14.6543 118.271 14.513 118.613 14.2305C118.955 13.9479 119.126 13.5286 119.126 12.9727C119.126 12.4076 118.941 12.002 118.572 11.7559C118.203 11.5098 117.647 11.3867 116.904 11.3867H115.824V14.6543ZM115.824 16.0078V20H114.19V10.0059H117.014C118.303 10.0059 119.258 10.2474 119.878 10.7305C120.498 11.2135 120.808 11.9427 120.808 12.918C120.808 14.1621 120.16 15.0485 118.866 15.5771L121.689 20H119.83L117.438 16.0078H115.824Z" fill="#003737"/>
</svg>
