<svg width="22" height="22" viewBox="0 0 22 22" fill="none" xmlns="http://www.w3.org/2000/svg">
<path d="M16.8023 16.7518L13.5976 13.2863C14.4216 12.2679 14.8731 10.9865 14.8731 9.65249C14.8731 6.53576 12.4342 4 9.43654 4C6.43888 4 4 6.53576 4 9.65249C4 12.7692 6.43888 15.305 9.43654 15.305C10.5619 15.305 11.6343 14.9521 12.5512 14.2821L15.7803 17.7739C15.9152 17.9196 16.0968 18 16.2913 18C16.4754 18 16.6501 17.927 16.7827 17.7943C17.0645 17.5124 17.0735 17.045 16.8023 16.7518ZM9.43654 5.47456C11.6523 5.47456 13.4549 7.34873 13.4549 9.65249C13.4549 11.9563 11.6523 13.8304 9.43654 13.8304C7.2208 13.8304 5.41823 11.9563 5.41823 9.65249C5.41823 7.34873 7.2208 5.47456 9.43654 5.47456Z" fill="#787878"/>
</svg>
