<svg width="20" height="20" viewBox="0 0 20 20" fill="none" xmlns="http://www.w3.org/2000/svg">
<path fill-rule="evenodd" clip-rule="evenodd" d="M11 3H6C4.34315 3 3 4.34315 3 6V14C3 15.6569 4.34315 17 6 17H14C15.6569 17 17 15.6569 17 14V9H15.5V14C15.5 14.8284 14.8284 15.5 14 15.5H6C5.17157 15.5 4.5 14.8284 4.5 14V6C4.5 5.17157 5.17157 4.5 6 4.5H11V3Z" fill="white"/>
<path d="M16.5333 7.58197L14.8877 5.93641L7.82396 13.0002L6.72692 11.9031L13.7907 4.83937L12.1451 3.19381L16.5333 3.19381L16.5333 7.58197Z" fill="white"/>
</svg>
