<svg width="20" height="20" viewBox="0 0 20 20" fill="none" xmlns="http://www.w3.org/2000/svg">
<path d="M16.1455 6.12726L14.8182 7.45455C15.2227 8.21362 15.4545 9.07727 15.4545 9.99999C15.4545 13.0136 13.0136 15.4545 10 15.4545V12.7273L6.36365 16.3636L10 20V17.2727C14.0182 17.2727 17.2727 14.0182 17.2727 9.99994C17.2727 8.57269 16.8546 7.24996 16.1455 6.12726Z" fill="white"/>
<path d="M10.0002 4.54547V7.27275L13.6365 3.63635L10.0002 0V2.72727C5.98195 2.72727 2.72742 5.98181 2.72742 10C2.72742 11.4273 3.14559 12.75 3.85468 13.8728L5.18196 12.5455C4.77743 11.7864 4.54561 10.9227 4.54561 10C4.54561 6.98638 6.98653 4.54547 10.0002 4.54547Z" fill="white"/>
</svg>
