<svg width="18" height="18" viewBox="0 0 18 18" fill="none" xmlns="http://www.w3.org/2000/svg">
<path d="M13.6214 5.67848L14.1499 6.65408L13.2228 6.52684L13.1688 7.64317L15.449 7.95617L16.4323 5.87524L15.4678 5.31063L15.068 6.15673L14.5395 5.18113C13.1816 2.67456 10.2235 1.6393 7.94543 2.87341L8.49268 3.8836C10.2645 2.92375 12.5652 3.72893 13.6214 5.67848Z" fill="#9E9E9E"/>
<path d="M4.3741 12.3197L3.8406 11.3469L4.76836 11.4694L4.81658 10.3527L2.5348 10.0515L1.56215 12.1374L2.52958 12.6971L2.92507 11.8489L3.45857 12.8218C4.8293 15.3214 7.79264 16.3414 10.0643 15.0957L9.51193 14.0883C7.74501 15.0572 5.44022 14.2639 4.3741 12.3197Z" fill="#9E9E9E"/>
<path d="M7.26743 9.05416L6.30283 6.58007H2.60959L1.66481 9.05416H-0.00012207L3.61383 0.108459H5.33162L8.94557 9.05416H7.26743ZM5.8866 5.32475L4.98146 2.89942C4.91539 2.73692 4.82289 2.48098 4.70397 2.1316C4.58945 1.78222 4.51017 1.52628 4.46612 1.36378C4.3472 1.86347 4.17322 2.40988 3.94418 3.00301L3.07207 5.32475H5.8866Z" fill="#9E9E9E"/>
<path d="M11.1821 9.05432H13.9606C15.2495 9.05432 16.1799 9.23381 16.7519 9.59278C17.328 9.95175 17.6161 10.5188 17.6161 11.2938C17.6161 11.8159 17.4753 12.2504 17.1936 12.5971C16.9119 12.9438 16.5064 13.1621 15.9772 13.2518V13.313C16.6345 13.4313 17.1168 13.6659 17.4241 14.0167C17.7356 14.3634 17.8914 14.8346 17.8914 15.4301C17.8914 16.2337 17.5969 16.864 17.0079 17.3208C16.4232 17.7736 15.608 18 14.5624 18H11.1821V9.05432ZM12.7122 12.7501H14.1847C14.8249 12.7501 15.2922 12.6542 15.5867 12.4625C15.8812 12.2667 16.0284 11.9363 16.0284 11.4713C16.0284 11.0511 15.8684 10.7472 15.5483 10.5595C15.2324 10.3719 14.7288 10.2781 14.0374 10.2781H12.7122V12.7501ZM12.7122 13.9371V16.7701H14.3383C14.9785 16.7701 15.4608 16.6539 15.7852 16.4214C16.1138 16.1848 16.2781 15.8136 16.2781 15.3077C16.2781 14.8427 16.1117 14.498 15.7787 14.2737C15.4458 14.0493 14.9401 13.9371 14.2615 13.9371H12.7122Z" fill="#9E9E9E"/>
</svg>
