<svg width="20" height="21" viewBox="0 0 20 21" fill="none" xmlns="http://www.w3.org/2000/svg">
<path d="M19.0278 19.5H0.974114C0.626092 19.5 0.304511 19.3094 0.130504 19C-0.0435034 18.6906 -0.0435011 18.3093 0.13051 17.9999L9.15688 1.99912C9.33103 1.69021 9.65234 1.5 10 1.5C10.3477 1.5 10.669 1.69021 10.8431 1.99912L19.8695 17.9999C20.0434 18.3092 20.0435 18.6902 19.8697 18.9995C19.696 19.3089 19.3747 19.4996 19.0269 19.5H19.0278ZM9.02732 14.4997V16.4998H9.93619H9.99951H10.0628H10.9737V14.4997H9.02732ZM9.02732 7.49939V12.4996H10.9756V7.49939H9.02732Z" fill="#FFA700"/>
</svg>
