<svg width="22" height="23" viewBox="0 0 22 23" fill="none" xmlns="http://www.w3.org/2000/svg">
<path d="M11 22.5C4.92487 22.5 0 17.5751 0 11.5C0 5.42487 4.92487 0.5 11 0.5C17.0751 0.5 22 5.42487 22 11.5C21.9933 17.5724 17.0724 22.4933 11 22.5Z" fill="#9E9E9E"/>
<path d="M6.5509 16.5C6.39698 16.4997 6.25024 16.4348 6.1465 16.3211C6.04084 16.2083 5.98834 16.0557 6.00218 15.9017L6.13662 14.4231L12.347 8.21318L14.2878 10.154L8.07908 16.3633L6.60084 16.4978C6.58382 16.4995 6.56681 16.5 6.5509 16.5ZM14.6752 9.76593L12.735 7.82513L13.8988 6.66098C14.0017 6.55791 14.1414 6.5 14.287 6.5C14.4327 6.5 14.5723 6.55791 14.6752 6.66098L15.8391 7.82513C15.9421 7.92808 16 8.06778 16 8.21345C16 8.35913 15.9421 8.49883 15.8391 8.60178L14.6758 9.76538L14.6752 9.76593Z" fill="white"/>
</svg>
