<svg width="19" height="17" viewBox="0 0 19 17" fill="none" xmlns="http://www.w3.org/2000/svg">
<mask id="path-1-inside-1" fill="white">
<path fill-rule="evenodd" clip-rule="evenodd" d="M8 2.5H4C2.61929 2.5 1.5 3.61929 1.5 5V13C1.5 14.3807 2.61929 15.5 4 15.5H12C13.3807 15.5 14.5 14.3807 14.5 13V9H16V13C16 15.2091 14.2091 17 12 17H4C1.79086 17 0 15.2091 0 13V5C0 2.79086 1.79086 1 4 1H8V2.5Z"/>
</mask>
<path fill-rule="evenodd" clip-rule="evenodd" d="M8 2.5H4C2.61929 2.5 1.5 3.61929 1.5 5V13C1.5 14.3807 2.61929 15.5 4 15.5H12C13.3807 15.5 14.5 14.3807 14.5 13V9H16V13C16 15.2091 14.2091 17 12 17H4C1.79086 17 0 15.2091 0 13V5C0 2.79086 1.79086 1 4 1H8V2.5Z" fill="white"/>
<path d="M8 2.5V4H9.5V2.5H8ZM14.5 9V7.5H13V9H14.5ZM16 9H17.5V7.5H16V9ZM8 1H9.5V-0.5H8V1ZM8 1H4V4H8V1ZM4 1C1.79086 1 0 2.79086 0 5H3C3 4.44772 3.44772 4 4 4V1ZM0 5V13H3V5H0ZM0 13C0 15.2091 1.79086 17 4 17V14C3.44772 14 3 13.5523 3 13H0ZM4 17H12V14H4V17ZM12 17C14.2091 17 16 15.2091 16 13H13C13 13.5523 12.5523 14 12 14V17ZM16 13V9H13V13H16ZM16 7.5H14.5V10.5H16V7.5ZM17.5 13V9H14.5V13H17.5ZM12 18.5C15.0376 18.5 17.5 16.0376 17.5 13H14.5C14.5 14.3807 13.3807 15.5 12 15.5V18.5ZM4 18.5H12V15.5H4V18.5ZM-1.5 13C-1.5 16.0376 0.962434 18.5 4 18.5V15.5C2.61929 15.5 1.5 14.3807 1.5 13H-1.5ZM-1.5 5V13H1.5V5H-1.5ZM4 -0.5C0.962434 -0.5 -1.5 1.96243 -1.5 5H1.5C1.5 3.61929 2.61929 2.5 4 2.5V-0.5ZM8 -0.5H4V2.5H8V-0.5ZM9.5 2.5V1H6.5V2.5H9.5Z" fill="#787878" mask="url(#path-1-inside-1)"/>
<path d="M12.5942 0.937711C11.3268 0.937232 10.2352 1.83193 9.98713 3.07495C9.73898 4.3182 10.4037 5.56358 11.5746 6.04948C12.7456 6.53539 14.0968 6.12654 14.8019 5.07292C15.5067 4.01968 15.3696 2.61538 14.4746 1.71829C13.9772 1.21746 13.3001 0.936399 12.5942 0.937711ZM12.5942 0.937711C12.594 0.937711 12.5938 0.937711 12.5936 0.937712L12.5946 1.43771L12.5949 0.937711C12.5947 0.937711 12.5945 0.937711 12.5942 0.937711ZM10.4049 1.40548C11.5292 0.28287 13.3208 0.193108 14.5517 1.19778C15.7827 2.20252 16.0535 3.97578 15.1785 5.30207L14.9539 5.64245L15.2422 5.93087L18.293 8.98336L17.9834 9.29295L14.9313 6.24177L14.6429 5.95345L14.3025 6.178C12.9762 7.05287 11.203 6.78223 10.1981 5.55159C9.1933 4.32107 9.28267 2.52989 10.4049 1.40548Z" fill="#0E7D7D" stroke="#787878"/>
</svg>
