<svg width="22" height="22" viewBox="0 0 22 22" fill="none" xmlns="http://www.w3.org/2000/svg">
<path fill-rule="evenodd" clip-rule="evenodd" d="M16.7274 15.5808C16.6518 15.5824 16.576 15.5833 16.5 15.5833C10.9312 15.5833 6.41671 11.0688 6.41671 5.49996C6.41671 5.42397 6.41755 5.34817 6.41923 5.27256C4.74114 6.61694 3.66671 8.68391 3.66671 10.9999C3.66671 15.05 6.94995 18.3333 11 18.3333C13.3161 18.3333 15.383 17.2588 16.7274 15.5808ZM17.844 13.641C17.4066 13.7127 16.9577 13.75 16.5 13.75C11.9437 13.75 8.25004 10.0563 8.25004 5.49996C8.25004 5.04232 8.28731 4.59337 8.35896 4.156C8.48007 3.41679 8.69943 2.71064 9.00319 2.05139C8.21361 2.22681 7.46237 2.50405 6.76396 2.86864C3.83368 4.39833 1.83337 7.46553 1.83337 10.9999C1.83337 16.0625 5.93743 20.1666 11 20.1666C14.5344 20.1666 17.6016 18.1663 19.1313 15.236C19.4959 14.5376 19.7732 13.7864 19.9486 12.9968C19.2893 13.3006 18.5832 13.5199 17.844 13.641Z" fill="#787878"/>
</svg>
