<svg width="22" height="22" viewBox="0 0 22 22" fill="none" xmlns="http://www.w3.org/2000/svg">
<path d="M15.24 8.33333C15.0267 8.33333 14.7067 8.33333 14.6 8.33333C14.6 8.12 14.3867 7.69333 14.1733 7.48C13.96 7.26667 13.5333 7.05333 13 7.05333C12.7867 7.05333 12.5733 7.05333 12.36 7.16C12.2533 6.94667 12.1467 6.84 12.04 6.62667C11.8267 6.41333 11.5067 6.2 10.8667 6.2C10.6533 6.2 10.44 6.2 10.3333 6.30667V4.49333C10.3333 3.85333 9.90667 3 8.84 3C8.41333 3 7.98667 3.21333 7.66667 3.42667C7.13333 4.06667 7.13333 4.92 7.13333 4.92V9.50667C6.49333 9.61333 5.96 9.82667 5.64 10.1467C5 10.8933 5 11.8533 5 13.1333C5 13.3467 5 13.6667 5 13.88C5 15.3733 5.74667 16.12 6.49333 16.8667L6.81333 17.2933C8.2 18.5733 9.37333 19 12.2533 19C15.3467 19 16.7333 17.2933 16.7333 13.56V10.8933C16.7333 10.1467 16.52 8.65333 15.24 8.33333ZM15.6667 10.8933V13.6667C15.6667 17.2933 14.28 18.04 12.2533 18.04C9.69333 18.04 8.73333 17.72 7.66667 16.6533C7.56 16.5467 7.45333 16.44 7.24 16.2267C6.49333 15.3733 6.06667 14.9467 6.06667 13.88C6.06667 13.6667 6.06667 13.3467 6.06667 13.1333C6.06667 12.0667 6.06667 11.32 6.38667 10.8933C6.49333 10.7867 6.81333 10.68 7.13333 10.68V11.2133L6.81333 12.8133C6.81333 12.92 6.81333 12.92 6.92 13.0267C7.02667 13.1333 7.13333 13.0267 7.13333 13.0267L8.2 11.7467C8.2 11.64 8.2 11.5333 8.2 11.5333V4.92C8.2 4.81333 8.2 4.38667 8.41333 4.17333C8.52 4.17333 8.62667 4.06667 8.84 4.06667C9.16 4.06667 9.26667 4.38667 9.26667 4.49333V7.8V9.08C9.26667 9.4 9.48 9.72 9.8 9.72C10.12 9.72 10.3333 9.4 10.3333 9.18667V7.8C10.3333 7.69333 10.44 7.26667 10.8667 7.26667C11.1867 7.26667 11.4 7.37333 11.4 7.69333V9.08C11.4 9.4 11.6133 9.72 11.9333 9.72C12.2533 9.72 12.4667 9.4 12.4667 9.18667V8.44C12.4667 8.33333 12.5733 8.12 13 8.12C13.2133 8.12 13.32 8.22667 13.32 8.22667C13.5333 8.33333 13.5333 8.65333 13.5333 8.65333V9.50667C13.5333 9.82667 13.7467 10.04 13.96 10.04C14.28 10.04 14.4933 9.93333 14.4933 9.61333C14.4933 9.50667 14.6 9.4 14.7067 9.29333C14.7067 9.29333 14.8133 9.29333 14.92 9.29333C15.56 9.50667 15.6667 10.5733 15.6667 10.8933C15.6667 10.7867 15.6667 10.7867 15.6667 10.8933Z" fill="#787878"/>
<path d="M15.24 8.33333C15.0267 8.33333 14.7067 8.33333 14.6 8.33333C14.6 8.12 14.3867 7.69333 14.1733 7.48C13.96 7.26667 13.5333 7.05333 13 7.05333C12.7867 7.05333 12.5733 7.05333 12.36 7.16C12.2533 6.94667 12.1467 6.84 12.04 6.62667C11.8267 6.41333 11.5067 6.2 10.8667 6.2C10.6533 6.2 10.44 6.2 10.3333 6.30667V4.49333C10.3333 3.85333 9.90667 3 8.84 3C8.41333 3 7.98667 3.21333 7.66667 3.42667C7.13333 4.06667 7.13333 4.92 7.13333 4.92V9.50667C6.49333 9.61333 5.96 9.82667 5.64 10.1467C5 10.8933 5 11.8533 5 13.1333C5 13.3467 5 13.6667 5 13.88C5 15.3733 5.74667 16.12 6.49333 16.8667L6.81333 17.2933C8.2 18.5733 9.37333 19 12.2533 19C15.3467 19 16.7333 17.2933 16.7333 13.56V10.8933C16.7333 10.1467 16.52 8.65333 15.24 8.33333ZM15.6667 10.8933V13.6667C15.6667 17.2933 14.28 18.04 12.2533 18.04C9.69333 18.04 8.73333 17.72 7.66667 16.6533C7.56 16.5467 7.45333 16.44 7.24 16.2267C6.49333 15.3733 6.06667 14.9467 6.06667 13.88C6.06667 13.6667 6.06667 13.3467 6.06667 13.1333C6.06667 12.0667 6.06667 11.32 6.38667 10.8933C6.49333 10.7867 6.81333 10.68 7.13333 10.68V11.2133L6.81333 12.8133C6.81333 12.92 6.81333 12.92 6.92 13.0267C7.02667 13.1333 7.13333 13.0267 7.13333 13.0267L8.2 11.7467C8.2 11.64 8.2 11.5333 8.2 11.5333V4.92C8.2 4.81333 8.2 4.38667 8.41333 4.17333C8.52 4.17333 8.62667 4.06667 8.84 4.06667C9.16 4.06667 9.26667 4.38667 9.26667 4.49333V7.8V9.08C9.26667 9.4 9.48 9.72 9.8 9.72C10.12 9.72 10.3333 9.4 10.3333 9.18667V7.8C10.3333 7.69333 10.44 7.26667 10.8667 7.26667C11.1867 7.26667 11.4 7.37333 11.4 7.69333V9.08C11.4 9.4 11.6133 9.72 11.9333 9.72C12.2533 9.72 12.4667 9.4 12.4667 9.18667V8.44C12.4667 8.33333 12.5733 8.12 13 8.12C13.2133 8.12 13.32 8.22667 13.32 8.22667C13.5333 8.33333 13.5333 8.65333 13.5333 8.65333V9.50667C13.5333 9.82667 13.7467 10.04 13.96 10.04C14.28 10.04 14.4933 9.93333 14.4933 9.61333C14.4933 9.50667 14.6 9.4 14.7067 9.29333C14.7067 9.29333 14.8133 9.29333 14.92 9.29333C15.56 9.50667 15.6667 10.5733 15.6667 10.8933C15.6667 10.7867 15.6667 10.7867 15.6667 10.8933V10.8933Z" stroke="#787878" stroke-width="0.4"/>
</svg>
