<svg width="18" height="18" viewBox="0 0 18 18" fill="none" xmlns="http://www.w3.org/2000/svg">
<path d="M0.807739 2.5C0.807739 1.67157 1.47931 1 2.30774 1H15.3077C16.1362 1 16.8077 1.67157 16.8077 2.5V15.5C16.8077 16.3284 16.1362 17 15.3077 17H2.30774C1.47931 17 0.807739 16.3284 0.807739 15.5V2.5Z" stroke="#787878"/>
<mask id="path-2-inside-1" fill="white">
<path d="M8.30774 1C8.30774 0.723858 8.5316 0.5 8.80774 0.5C9.08388 0.5 9.30774 0.723858 9.30774 1V17C9.30774 17.2761 9.08388 17.5 8.80774 17.5C8.5316 17.5 8.30774 17.2761 8.30774 17V1Z"/>
</mask>
<path d="M8.30774 1V17H10.3077V1H8.30774ZM9.30774 17V1H7.30774V17H9.30774ZM8.80774 16.5C9.08388 16.5 9.30774 16.7239 9.30774 17H7.30774C7.30774 17.8284 7.97931 18.5 8.80774 18.5V16.5ZM8.30774 17C8.30774 16.7239 8.5316 16.5 8.80774 16.5V18.5C9.63617 18.5 10.3077 17.8284 10.3077 17H8.30774ZM8.80774 1.5C8.5316 1.5 8.30774 1.27614 8.30774 1H10.3077C10.3077 0.171573 9.63617 -0.5 8.80774 -0.5V1.5ZM8.80774 -0.5C7.97931 -0.5 7.30774 0.171575 7.30774 1H9.30774C9.30774 1.27614 9.08388 1.5 8.80774 1.5V-0.5Z" fill="#787878" mask="url(#path-2-inside-1)"/>
<path d="M4.5 4.25C4.5 4.11193 4.61193 4 4.75 4C4.88807 4 5 4.11193 5 4.25V13.75C5 13.8881 4.88807 14 4.75 14C4.61193 14 4.5 13.8881 4.5 13.75V4.25Z" stroke="#787878"/>
</svg>
