<svg width="13" height="16" viewBox="0 0 13 16" fill="none" xmlns="http://www.w3.org/2000/svg">
<path d="M12.0044 16.0003L8.89073 12.8875C7.48237 13.8165 5.5994 13.5291 4.53232 12.2223C3.46524 10.9155 3.56025 9.01322 4.75223 7.81922C5.9461 6.62686 7.84873 6.53145 9.15592 7.59838C10.4631 8.66531 10.7507 10.5484 9.8215 11.9568L12.9339 15.0709L12.0044 16.0003ZM7.07752 8.1719C6.13646 8.1713 5.32603 8.83549 5.14184 9.75829C4.95765 10.6811 5.451 11.6055 6.32019 11.9661C7.18937 12.3268 8.19232 12.0233 8.71567 11.2413C9.23902 10.4592 9.13702 9.41641 8.47205 8.75057C8.10317 8.37917 7.601 8.17079 7.07752 8.1719Z" fill="white"/>
<path fill-rule="evenodd" clip-rule="evenodd" d="M12.3357 9.44755V5.39682C12.3359 5.38959 12.3354 5.38234 12.3341 5.37523C12.3317 5.36846 12.3299 5.3615 12.3287 5.35442C12.3251 5.28671 12.3124 5.2198 12.2909 5.15551L12.2839 5.13546C12.2825 5.13138 12.2811 5.12729 12.2798 5.12322C12.2752 5.1096 12.2706 5.09609 12.2647 5.08304C12.2273 4.99904 12.1751 4.92251 12.1105 4.85714L7.48462 0.231292C7.41926 0.166673 7.34272 0.114431 7.25873 0.0770975C7.24233 0.0686485 7.22532 0.0614328 7.20784 0.0555102L7.18626 0.0485714C7.12169 0.0268285 7.05456 0.0136102 6.98657 0.0092517C6.97873 0.00850207 6.97098 0.00695206 6.96344 0.00462585C6.95548 0.0019217 6.94717 0.000364146 6.93877 0H1.54195C0.690354 0 0 0.690354 0 1.54195V13.8775C0 14.7291 0.690354 15.4195 1.54195 15.4195H6.41099V13.8775H1.54195V1.54195H6.1678V5.39682C6.1678 5.82262 6.51298 6.1678 6.93877 6.1678H10.7936V9.44755H12.3357ZM7.70975 4.62585V2.63211L9.70349 4.62585H7.70975Z" fill="white"/>
</svg>
