<svg width="17" height="21" viewBox="0 0 17 21" fill="none" xmlns="http://www.w3.org/2000/svg">
<path d="M15.7801 21L11.6934 16.9144C9.84491 18.1338 7.37351 17.7566 5.97297 16.0414C4.57242 14.3262 4.69712 11.8295 6.26159 10.2624C7.82855 8.69739 10.3257 8.57217 12.0414 9.97251C13.7571 11.3729 14.1346 13.8444 12.915 15.6929L17 19.7802L15.7801 21ZM9.31354 10.7253C8.0784 10.7245 7.0147 11.5962 6.77295 12.8074C6.5312 14.0185 7.17873 15.2318 8.31954 15.7052C9.46035 16.1786 10.7767 15.7803 11.4636 14.7538C12.1505 13.7274 12.0166 12.3587 11.1439 11.4848C10.6597 10.9973 10.0006 10.7238 9.31354 10.7253Z" fill="#0E7D7D"/>
<path fill-rule="evenodd" clip-rule="evenodd" d="M2.04761 20.2381H8.11904V18.2143H2.04761V2.02381H8.11904V7.08333C8.11904 7.64219 8.57209 8.09524 9.13095 8.09524H14.1905V11.131H16.2144V7.08333C16.2147 7.07384 16.214 7.06433 16.2123 7.055C16.2091 7.04611 16.2067 7.03697 16.2052 7.02768C16.2005 6.93881 16.1838 6.85099 16.1556 6.76661L16.1465 6.7403C16.1446 6.73494 16.1428 6.72958 16.141 6.72423C16.135 6.70636 16.129 6.68862 16.1212 6.67149C16.0722 6.56125 16.0036 6.4608 15.9188 6.375L9.84738 0.303571C9.76158 0.218758 9.66113 0.150191 9.55089 0.10119C9.52936 0.0901012 9.50704 0.0806305 9.4841 0.0728571L9.45577 0.06375C9.37103 0.0352124 9.28292 0.0178634 9.19369 0.0121429C9.18339 0.011159 9.17321 0.00912459 9.16333 0.00607143C9.15288 0.00252223 9.14197 0.000477942 9.13095 0H2.04761C0.929894 0 0.0238037 0.90609 0.0238037 2.02381V18.2143C0.0238037 19.332 0.929894 20.2381 2.04761 20.2381ZM10.1429 6.07143V3.45464L12.7596 6.07143H10.1429Z" fill="#0E7D7D"/>
</svg>
