<svg width="16" height="16" viewBox="0 0 16 16" fill="none" xmlns="http://www.w3.org/2000/svg">
<path d="M8.31193 15.6997C7.87938 15.701 7.46432 15.5291 7.15934 15.2224L0.778143 8.84037C0.441398 8.50459 0.268731 8.03809 0.305703 7.56397L0.712979 2.21563C0.771055 1.41117 1.41202 0.771934 2.21664 0.71604L7.56498 0.308765C7.60653 0.299805 7.64888 0.299805 7.69043 0.299805C8.12201 0.300913 8.53569 0.472472 8.84139 0.777132L15.2234 7.15833C15.5291 7.46386 15.7008 7.87833 15.7008 8.31051C15.7008 8.74269 15.5291 9.15716 15.2234 9.46269L9.4637 15.2224C9.15892 15.5289 8.74419 15.7008 8.31193 15.6997ZM7.68961 1.92891L2.33719 2.33618L1.92992 7.6886L8.31193 14.0706L14.0708 8.31173L7.68961 1.92891ZM4.85579 6.48388C4.07857 6.48404 3.40948 5.93516 3.2577 5.17291C3.10592 4.41067 3.51374 3.64735 4.23173 3.34979C4.94973 3.05224 5.77793 3.30331 6.20984 3.94947C6.64174 4.59562 6.55705 5.45689 6.00756 6.00655C5.70278 6.31308 5.28805 6.48496 4.85579 6.48388Z" fill="white"/>
</svg>
