<svg width="23" height="21" viewBox="0 0 23 21" fill="none" xmlns="http://www.w3.org/2000/svg">
<mask id="path-1-inside-1" fill="white">
<path fill-rule="evenodd" clip-rule="evenodd" d="M0 0H8.94218C10.0486 0 10.9617 0.827956 11.0958 1.89807C11.2298 0.827956 12.1429 0 13.2494 0H22.1915V18.0879H13.2494C12.1817 18.0879 11.2941 18.8588 11.1127 19.8743V20.2584C11.1127 20.1661 11.107 20.0752 11.0958 19.9859C11.0846 20.0752 11.0788 20.1661 11.0788 20.2584V19.8743C10.8975 18.8588 10.0098 18.0879 8.94218 18.0879H0V0Z"/>
</mask>
<path d="M0 0V-1H-1V0H0ZM11.0958 1.89807L10.1035 2.02235H12.088L11.0958 1.89807ZM22.1915 0H23.1915V-1H22.1915V0ZM22.1915 18.0879V19.0879H23.1915V18.0879H22.1915ZM11.1127 19.8743L10.1283 19.6985L10.1127 19.7857V19.8743H11.1127ZM11.0958 19.9859L12.088 19.8616H10.1035L11.0958 19.9859ZM11.0788 19.8743H12.0788V19.7857L12.0633 19.6985L11.0788 19.8743ZM0 18.0879H-1V19.0879H0V18.0879ZM8.94218 -1H0V1H8.94218V-1ZM12.088 1.77378C11.8921 0.209639 10.5591 -1 8.94218 -1V1C9.53807 1 10.0314 1.44627 10.1035 2.02235L12.088 1.77378ZM13.2494 -1C11.6324 -1 10.2994 0.209639 10.1035 1.77378L12.088 2.02235C12.1602 1.44627 12.6535 1 13.2494 1V-1ZM22.1915 -1H13.2494V1H22.1915V-1ZM23.1915 18.0879V0H21.1915V18.0879H23.1915ZM13.2494 19.0879H22.1915V17.0879H13.2494V19.0879ZM12.0971 20.0501C12.1948 19.5031 12.6747 19.0879 13.2494 19.0879V17.0879C11.6888 17.0879 10.3933 18.2145 10.1283 19.6985L12.0971 20.0501ZM12.1127 20.2584V19.8743H10.1127V20.2584H12.1127ZM10.1035 20.1102C10.1096 20.1583 10.1127 20.2078 10.1127 20.2584H12.1127C12.1127 20.1245 12.1044 19.992 12.088 19.8616L10.1035 20.1102ZM12.0788 20.2584C12.0788 20.2078 12.082 20.1584 12.088 20.1102L10.1035 19.8616C10.0872 19.992 10.0788 20.1244 10.0788 20.2584H12.0788ZM10.0788 19.8743V20.2584H12.0788V19.8743H10.0788ZM8.94218 19.0879C9.51686 19.0879 9.99673 19.5031 10.0944 20.0501L12.0633 19.6985C11.7982 18.2145 10.5028 17.0879 8.94218 17.0879V19.0879ZM0 19.0879H8.94218V17.0879H0V19.0879ZM-1 0V18.0879H1V0H-1Z" fill="#F4284D" mask="url(#path-1-inside-1)"/>
<path d="M14.5 6.5L8 13" stroke="#F4284D" stroke-width="2"/>
<path d="M14.5 13L8 6.5" stroke="#F4284D" stroke-width="2"/>
</svg>
