<svg width="23" height="21" viewBox="0 0 23 21" fill="none" xmlns="http://www.w3.org/2000/svg">
<mask id="path-1-inside-1" fill="white">
<path fill-rule="evenodd" clip-rule="evenodd" d="M0 0H8.94218C10.0483 0 10.9612 0.827506 11.0957 1.89719C11.2301 0.827506 12.143 0 13.2492 0H22.1913V18.0879H13.2492C12.1819 18.0879 11.2946 18.8582 11.1127 19.8731V20.2584C11.1127 20.1658 11.1069 20.0746 11.0957 19.9851C11.0844 20.0746 11.0786 20.1658 11.0786 20.2584V19.8731C10.8968 18.8582 10.0094 18.0879 8.94218 18.0879H0V0Z"/>
</mask>
<path d="M0 0V-1H-1V0H0ZM11.0957 1.89719L10.1035 2.02188H12.0879L11.0957 1.89719ZM22.1913 0H23.1913V-1H22.1913V0ZM22.1913 18.0879V19.0879H23.1913V18.0879H22.1913ZM11.1127 19.8731L10.1284 19.6967L10.1127 19.7842V19.8731H11.1127ZM11.0957 19.9851L12.0879 19.8604H10.1035L11.0957 19.9851ZM11.0786 19.8731H12.0786V19.7842L12.0629 19.6967L11.0786 19.8731ZM0 18.0879H-1V19.0879H0V18.0879ZM8.94218 -1H0V1H8.94218V-1ZM12.0879 1.77251C11.8914 0.208982 10.5587 -1 8.94218 -1V1C9.5379 1 10.0311 1.44603 10.1035 2.02188L12.0879 1.77251ZM13.2492 -1C11.6326 -1 10.2999 0.208982 10.1035 1.77251L12.0879 2.02188C12.1602 1.44603 12.6534 1 13.2492 1V-1ZM22.1913 -1H13.2492V1H22.1913V-1ZM23.1913 18.0879V0H21.1913V18.0879H23.1913ZM13.2492 19.0879H22.1913V17.0879H13.2492V19.0879ZM12.097 20.0494C12.195 19.5028 12.6747 19.0879 13.2492 19.0879V17.0879C11.6892 17.0879 10.3941 18.2136 10.1284 19.6967L12.097 20.0494ZM12.1127 20.2584V19.8731H10.1127V20.2584H12.1127ZM10.1035 20.1097C10.1095 20.158 10.1127 20.2076 10.1127 20.2584H12.1127C12.1127 20.124 12.1043 19.9912 12.0879 19.8604L10.1035 20.1097ZM12.0786 20.2584C12.0786 20.2076 12.0818 20.158 12.0879 20.1097L10.1035 19.8604C10.087 19.9911 10.0786 20.124 10.0786 20.2584H12.0786ZM10.0786 19.8731V20.2584H12.0786V19.8731H10.0786ZM8.94218 19.0879C9.51663 19.0879 9.99634 19.5028 10.0943 20.0494L12.0629 19.6967C11.7972 18.2136 10.5022 17.0879 8.94218 17.0879V19.0879ZM0 19.0879H8.94218V17.0879H0V19.0879ZM-1 0V18.0879H1V0H-1Z" fill="#6E9EBD" mask="url(#path-1-inside-1)"/>
<path d="M9.33333 13L6 9.7276L7.48231 8.2724L9.33333 10.0947L14.5177 5L16 6.45521L9.33333 13Z" fill="#6E9EBD"/>
</svg>
