<svg width="12" height="12" viewBox="0 0 12 12" fill="none" xmlns="http://www.w3.org/2000/svg">
<path d="M0.166656 11.8333V6.72915H5.27082L2.92509 9.07705C3.73444 9.90466 4.84241 10.3723 5.99999 10.375C7.85167 10.3722 9.5011 9.20408 10.1183 7.45831H10.1314C10.215 7.22106 10.2781 6.97712 10.3203 6.72915H11.7874C11.4199 9.64572 8.93964 11.8332 5.99999 11.8333H5.9927C4.44596 11.8379 2.96167 11.2235 1.87072 10.127L0.166656 11.8333ZM1.67895 5.27083H0.211865C0.579182 2.35537 3.0578 0.168279 5.99634 0.166686H5.99999C7.54701 0.161736 9.03166 0.776177 10.1227 1.87295L11.8333 0.166686V5.27083H6.72916L9.07853 2.92294C8.26835 2.09436 7.15885 1.6266 5.99999 1.62504C4.14831 1.62777 2.49888 2.79591 1.88166 4.54168H1.86853C1.78435 4.77873 1.72116 5.02272 1.67968 5.27083H1.67895Z" fill="#0E7D7D"/>
</svg>
