<svg width="18" height="18" viewBox="0 0 18 18" fill="none" xmlns="http://www.w3.org/2000/svg">
<path d="M0.807739 2.5C0.807739 1.67157 1.47931 1 2.30774 1H15.3077C16.1362 1 16.8077 1.67157 16.8077 2.5V15.5C16.8077 16.3284 16.1362 17 15.3077 17H2.30774C1.47931 17 0.807739 16.3284 0.807739 15.5V2.5Z" stroke="#787878"/>
<mask id="path-2-inside-1" fill="white">
<path fill-rule="evenodd" clip-rule="evenodd" d="M2.30774 0.5C1.20317 0.5 0.307739 1.39543 0.307739 2.5L0.307739 15.5C0.307739 16.6046 1.20317 17.5 2.30774 17.5L6.30774 17.5L6.30774 0.5L2.30774 0.5ZM2.30774 3.5C2.30774 2.94772 2.75545 2.5 3.30774 2.5C3.86002 2.5 4.30774 2.94772 4.30774 3.5L4.30774 14.5C4.30774 15.0523 3.86002 15.5 3.30774 15.5C2.75545 15.5 2.30774 15.0523 2.30774 14.5L2.30774 3.5Z"/>
</mask>
<path fill-rule="evenodd" clip-rule="evenodd" d="M2.30774 0.5C1.20317 0.5 0.307739 1.39543 0.307739 2.5L0.307739 15.5C0.307739 16.6046 1.20317 17.5 2.30774 17.5L6.30774 17.5L6.30774 0.5L2.30774 0.5ZM2.30774 3.5C2.30774 2.94772 2.75545 2.5 3.30774 2.5C3.86002 2.5 4.30774 2.94772 4.30774 3.5L4.30774 14.5C4.30774 15.0523 3.86002 15.5 3.30774 15.5C2.75545 15.5 2.30774 15.0523 2.30774 14.5L2.30774 3.5Z" fill="#787878"/>
<path d="M0.307739 2.5L-0.692261 2.5L0.307739 2.5ZM0.307739 15.5L1.30774 15.5L0.307739 15.5ZM6.30774 17.5L6.30774 18.5L7.30774 18.5L7.30774 17.5L6.30774 17.5ZM6.30774 0.5L7.30774 0.5L7.30774 -0.5L6.30774 -0.5L6.30774 0.5ZM1.30774 2.5C1.30774 1.94772 1.75545 1.5 2.30774 1.5L2.30774 -0.5C0.650885 -0.5 -0.692261 0.843145 -0.692261 2.5L1.30774 2.5ZM1.30774 15.5L1.30774 2.5L-0.692261 2.5L-0.692261 15.5L1.30774 15.5ZM2.30774 16.5C1.75545 16.5 1.30774 16.0523 1.30774 15.5L-0.692261 15.5C-0.692261 17.1569 0.650885 18.5 2.30774 18.5L2.30774 16.5ZM6.30774 16.5L2.30774 16.5L2.30774 18.5L6.30774 18.5L6.30774 16.5ZM5.30774 0.5L5.30774 17.5L7.30774 17.5L7.30774 0.5L5.30774 0.5ZM2.30774 1.5L6.30774 1.5L6.30774 -0.5L2.30774 -0.5L2.30774 1.5ZM3.30774 1.5C2.20317 1.5 1.30774 2.39543 1.30774 3.5L3.30774 3.5L3.30774 1.5ZM5.30774 3.5C5.30774 2.39543 4.41231 1.5 3.30774 1.5L3.30774 3.5L5.30774 3.5ZM5.30774 14.5L5.30774 3.5L3.30774 3.5L3.30774 14.5L5.30774 14.5ZM3.30774 16.5C4.41231 16.5 5.30774 15.6046 5.30774 14.5L3.30774 14.5L3.30774 16.5ZM1.30774 14.5C1.30774 15.6046 2.20317 16.5 3.30774 16.5L3.30774 14.5L1.30774 14.5ZM1.30774 3.5L1.30774 14.5L3.30774 14.5L3.30774 3.5L1.30774 3.5Z" fill="#787878" mask="url(#path-2-inside-1)"/>
</svg>
