<svg width="20" height="20" viewBox="0 0 20 20" fill="none" xmlns="http://www.w3.org/2000/svg">
<path d="M19.0278 19H0.974114C0.626092 19 0.304511 18.8094 0.130504 18.5C-0.0435034 18.1905 -0.0435011 17.8093 0.13051 17.4999L9.15688 1.49912C9.33103 1.19021 9.65234 1 10 1C10.3477 1 10.669 1.19021 10.8431 1.49912L19.8695 17.4999C20.0434 17.8092 20.0435 18.1902 19.8697 18.4995C19.696 18.8089 19.3747 18.9996 19.0269 19H19.0278ZM9.02732 13.9997V15.9998H9.93619H9.99951H10.0628H10.9737V13.9997H9.02732ZM9.02732 6.99939V11.9996H10.9756V6.99939H9.02732Z" fill="#FFA700"/>
</svg>
